<svg xmlns="http://www.w3.org/2000/svg" xmlns:xlink="http://www.w3.org/1999/xlink" width="500" zoomAndPan="magnify" viewBox="0 0 375 74.999997" height="100" preserveAspectRatio="xMidYMid meet" version="1.0"><defs><g/><clipPath id="abf2fbf0dd"><path d="M 23 32 L 85.925781 32 L 85.925781 43 L 23 43 Z M 23 32 " clip-rule="nonzero"/></clipPath><clipPath id="a5c94ac908"><path d="M 35 8 L 85.925781 8 L 85.925781 19 L 35 19 Z M 35 8 " clip-rule="nonzero"/></clipPath><clipPath id="2df32edaef"><path d="M 61 20 L 85.925781 20 L 85.925781 31 L 61 31 Z M 61 20 " clip-rule="nonzero"/></clipPath><clipPath id="1cc8eda7ac"><path d="M 7.5 32 L 19 32 L 19 43 L 7.5 43 Z M 7.5 32 " clip-rule="nonzero"/></clipPath><clipPath id="daf5c01724"><path d="M 37 44 L 85.925781 44 L 85.925781 55 L 37 55 Z M 37 44 " clip-rule="nonzero"/></clipPath><clipPath id="488022d2c7"><path d="M 42 56 L 85.925781 56 L 85.925781 67 L 42 67 Z M 42 56 " clip-rule="nonzero"/></clipPath></defs><g fill="#000000" fill-opacity="1"><g transform="translate(103.693768, 33.152821)"><g><path d="M 6.0625 0 L -0.328125 0 L 8.34375 -22.921875 L 14.890625 -22.921875 L 23.5625 0 L 17.1875 0 L 15.71875 -4.09375 L 7.53125 -4.09375 Z M 9 -8.34375 L 14.234375 -8.34375 L 11.625 -16.046875 Z M 9 -8.34375 "/></g></g></g><g fill="#000000" fill-opacity="1"><g transform="translate(133.482706, 33.152821)"><g><path d="M 12.765625 0 L 0.984375 0 L 0.984375 -4.578125 L 3.921875 -4.578125 L 3.921875 -18.328125 L 0.984375 -18.328125 L 0.984375 -22.921875 L 12.765625 -22.921875 L 12.765625 -18.328125 L 9.828125 -18.328125 L 9.828125 -4.578125 L 12.765625 -4.578125 Z M 12.765625 0 "/></g></g></g><g fill="#000000" fill-opacity="1"><g transform="translate(153.779494, 33.152821)"><g/></g></g><g fill="#000000" fill-opacity="1"><g transform="translate(170.148495, 33.152821)"><g><path d="M 19.640625 -0.328125 C 14.773438 0.109375 10.738281 0.328125 7.53125 0.328125 C 5.394531 0.328125 3.820312 -0.171875 2.8125 -1.171875 C 1.8125 -2.179688 1.3125 -3.753906 1.3125 -5.890625 L 1.3125 -16.375 C 1.3125 -18.65625 1.828125 -20.316406 2.859375 -21.359375 C 3.898438 -22.398438 5.566406 -22.921875 7.859375 -22.921875 L 19.640625 -22.921875 L 19.640625 -18.328125 L 9.171875 -18.328125 C 7.859375 -18.328125 7.203125 -17.675781 7.203125 -16.375 L 7.203125 -5.890625 C 7.203125 -5.390625 7.347656 -4.988281 7.640625 -4.6875 C 7.929688 -4.394531 8.304688 -4.25 8.765625 -4.25 C 9.222656 -4.25 9.722656 -4.253906 10.265625 -4.265625 C 10.816406 -4.273438 11.382812 -4.289062 11.96875 -4.3125 C 12.5625 -4.34375 13.160156 -4.367188 13.765625 -4.390625 C 14.367188 -4.410156 15.144531 -4.453125 16.09375 -4.515625 C 17.039062 -4.578125 18.222656 -4.65625 19.640625 -4.75 Z M 19.640625 -0.328125 "/></g></g></g><g fill="#000000" fill-opacity="1"><g transform="translate(196.991589, 33.152821)"><g><path d="M 16.6875 -16.6875 C 16.6875 -18 16.035156 -18.65625 14.734375 -18.65625 L 9.171875 -18.65625 C 7.859375 -18.65625 7.203125 -18 7.203125 -16.6875 L 7.203125 -6.21875 C 7.203125 -4.90625 7.859375 -4.25 9.171875 -4.25 L 14.734375 -4.25 C 16.035156 -4.25 16.6875 -4.90625 16.6875 -6.21875 Z M 22.59375 -6.21875 C 22.59375 -3.925781 22.070312 -2.257812 21.03125 -1.21875 C 20 -0.1875 18.335938 0.328125 16.046875 0.328125 L 7.859375 0.328125 C 5.566406 0.328125 3.898438 -0.1875 2.859375 -1.21875 C 1.828125 -2.257812 1.3125 -3.925781 1.3125 -6.21875 L 1.3125 -16.6875 C 1.3125 -18.976562 1.828125 -20.640625 2.859375 -21.671875 C 3.898438 -22.710938 5.566406 -23.234375 7.859375 -23.234375 L 16.046875 -23.234375 C 18.335938 -23.234375 20 -22.710938 21.03125 -21.671875 C 22.070312 -20.640625 22.59375 -18.976562 22.59375 -16.6875 Z M 22.59375 -6.21875 "/></g></g></g><g fill="#000000" fill-opacity="1"><g transform="translate(227.43516, 33.152821)"><g><path d="M 21.9375 0 L 15.71875 0 L 7.859375 -13.75 L 7.859375 0 L 1.96875 0 L 1.96875 -22.921875 L 8.1875 -22.921875 L 16.046875 -9.171875 L 16.046875 -22.921875 L 21.9375 -22.921875 Z M 21.9375 0 "/></g></g></g><g fill="#000000" fill-opacity="1"><g transform="translate(257.878731, 33.152821)"><g><path d="M 13.09375 0 L 7.203125 0 L 7.203125 -18.328125 L 0.328125 -18.328125 L 0.328125 -22.921875 L 19.96875 -22.921875 L 19.96875 -18.328125 L 13.09375 -18.328125 Z M 13.09375 0 "/></g></g></g><g fill="#000000" fill-opacity="1"><g transform="translate(284.721817, 33.152821)"><g><path d="M 20.125 0 L 1.96875 0 L 1.96875 -22.921875 L 20.125 -22.921875 L 20.125 -18.328125 L 7.859375 -18.328125 L 7.859375 -13.90625 L 17.515625 -13.90625 L 17.515625 -9.328125 L 7.859375 -9.328125 L 7.859375 -4.578125 L 20.125 -4.578125 Z M 20.125 0 "/></g></g></g><g fill="#000000" fill-opacity="1"><g transform="translate(312.05589, 33.152821)"><g><path d="M 21.9375 0 L 15.71875 0 L 7.859375 -13.75 L 7.859375 0 L 1.96875 0 L 1.96875 -22.921875 L 8.1875 -22.921875 L 16.046875 -9.171875 L 16.046875 -22.921875 L 21.9375 -22.921875 Z M 21.9375 0 "/></g></g></g><g fill="#000000" fill-opacity="1"><g transform="translate(342.49947, 33.152821)"><g><path d="M 13.09375 0 L 7.203125 0 L 7.203125 -18.328125 L 0.328125 -18.328125 L 0.328125 -22.921875 L 19.96875 -22.921875 L 19.96875 -18.328125 L 13.09375 -18.328125 Z M 13.09375 0 "/></g></g></g><g fill="#000000" fill-opacity="1"><g transform="translate(103.693768, 64.29444)"><g><path d="M 14 -0.234375 C 10.53125 0.078125 7.65625 0.234375 5.375 0.234375 C 3.84375 0.234375 2.71875 -0.125 2 -0.84375 C 1.289062 -1.5625 0.9375 -2.679688 0.9375 -4.203125 L 0.9375 -11.671875 C 0.9375 -13.304688 1.304688 -14.492188 2.046875 -15.234375 C 2.785156 -15.972656 3.972656 -16.34375 5.609375 -16.34375 L 14 -16.34375 L 14 -13.078125 L 6.53125 -13.078125 C 5.601562 -13.078125 5.140625 -12.609375 5.140625 -11.671875 L 5.140625 -4.203125 C 5.140625 -3.847656 5.242188 -3.5625 5.453125 -3.34375 C 5.660156 -3.132812 5.925781 -3.03125 6.25 -3.03125 C 6.582031 -3.03125 6.941406 -3.035156 7.328125 -3.046875 C 7.710938 -3.054688 8.113281 -3.066406 8.53125 -3.078125 C 8.957031 -3.097656 9.382812 -3.113281 9.8125 -3.125 C 10.238281 -3.144531 10.789062 -3.175781 11.46875 -3.21875 C 12.144531 -3.269531 12.988281 -3.328125 14 -3.390625 Z M 14 -0.234375 "/></g></g></g><g fill="#000000" fill-opacity="1"><g transform="translate(130.956593, 64.29444)"><g><path d="M 1.40625 -16.34375 L 11.203125 -16.34375 C 12.835938 -16.34375 14.023438 -15.972656 14.765625 -15.234375 C 15.503906 -14.492188 15.875 -13.304688 15.875 -11.671875 L 15.875 -9.578125 C 15.875 -8.285156 15.660156 -7.28125 15.234375 -6.5625 C 14.804688 -5.84375 14.125 -5.367188 13.1875 -5.140625 L 16.109375 0 L 11.5625 0 L 8.875 -4.90625 L 5.609375 -4.90625 L 5.609375 0 L 1.40625 0 Z M 11.671875 -11.671875 C 11.671875 -12.609375 11.203125 -13.078125 10.265625 -13.078125 L 5.609375 -13.078125 L 5.609375 -8.171875 L 10.265625 -8.171875 C 11.203125 -8.171875 11.671875 -8.640625 11.671875 -9.578125 Z M 11.671875 -11.671875 "/></g></g></g><g fill="#000000" fill-opacity="1"><g transform="translate(160.552924, 64.29444)"><g><path d="M 14.359375 0 L 1.40625 0 L 1.40625 -16.34375 L 14.359375 -16.34375 L 14.359375 -13.078125 L 5.609375 -13.078125 L 5.609375 -9.921875 L 12.484375 -9.921875 L 12.484375 -6.65625 L 5.609375 -6.65625 L 5.609375 -3.265625 L 14.359375 -3.265625 Z M 14.359375 0 "/></g></g></g><g fill="#000000" fill-opacity="1"><g transform="translate(188.165781, 64.29444)"><g><path d="M 4.3125 0 L -0.234375 0 L 5.953125 -16.34375 L 10.625 -16.34375 L 16.8125 0 L 12.25 0 L 11.203125 -2.921875 L 5.375 -2.921875 Z M 6.421875 -5.953125 L 10.15625 -5.953125 L 8.28125 -11.4375 Z M 6.421875 -5.953125 "/></g></g></g><g fill="#000000" fill-opacity="1"><g transform="translate(217.528756, 64.29444)"><g><path d="M 9.34375 0 L 5.140625 0 L 5.140625 -13.078125 L 0.234375 -13.078125 L 0.234375 -16.34375 L 14.234375 -16.34375 L 14.234375 -13.078125 L 9.34375 -13.078125 Z M 9.34375 0 "/></g></g></g><g fill="#000000" fill-opacity="1"><g transform="translate(244.791577, 64.29444)"><g><path d="M 11.90625 -11.90625 C 11.90625 -12.84375 11.4375 -13.3125 10.5 -13.3125 L 6.53125 -13.3125 C 5.601562 -13.3125 5.140625 -12.84375 5.140625 -11.90625 L 5.140625 -4.4375 C 5.140625 -3.5 5.601562 -3.03125 6.53125 -3.03125 L 10.5 -3.03125 C 11.4375 -3.03125 11.90625 -3.5 11.90625 -4.4375 Z M 16.109375 -4.4375 C 16.109375 -2.800781 15.738281 -1.613281 15 -0.875 C 14.257812 -0.132812 13.070312 0.234375 11.4375 0.234375 L 5.609375 0.234375 C 3.972656 0.234375 2.785156 -0.132812 2.046875 -0.875 C 1.304688 -1.613281 0.9375 -2.800781 0.9375 -4.4375 L 0.9375 -11.90625 C 0.9375 -13.539062 1.304688 -14.726562 2.046875 -15.46875 C 2.785156 -16.207031 3.972656 -16.578125 5.609375 -16.578125 L 11.4375 -16.578125 C 13.070312 -16.578125 14.257812 -16.207031 15 -15.46875 C 15.738281 -14.726562 16.109375 -13.539062 16.109375 -11.90625 Z M 16.109375 -4.4375 "/></g></g></g><g fill="#000000" fill-opacity="1"><g transform="translate(274.621256, 64.29444)"><g><path d="M 1.40625 -16.34375 L 11.203125 -16.34375 C 12.835938 -16.34375 14.023438 -15.972656 14.765625 -15.234375 C 15.503906 -14.492188 15.875 -13.304688 15.875 -11.671875 L 15.875 -9.578125 C 15.875 -8.285156 15.660156 -7.28125 15.234375 -6.5625 C 14.804688 -5.84375 14.125 -5.367188 13.1875 -5.140625 L 16.109375 0 L 11.5625 0 L 8.875 -4.90625 L 5.609375 -4.90625 L 5.609375 0 L 1.40625 0 Z M 11.671875 -11.671875 C 11.671875 -12.609375 11.203125 -13.078125 10.265625 -13.078125 L 5.609375 -13.078125 L 5.609375 -8.171875 L 10.265625 -8.171875 C 11.203125 -8.171875 11.671875 -8.640625 11.671875 -9.578125 Z M 11.671875 -11.671875 "/></g></g></g><g clip-path="url(#abf2fbf0dd)"><path fill="#8c52ff" d="M 113.359375 32.503906 L 62.707031 32.503906 L 60.546875 36.246094 L 55.535156 36.246094 L 53.375 32.503906 C 51.507812 32.503906 28.140625 32.503906 26.273438 32.503906 L 23.476562 37.351562 L 26.273438 42.195312 C 28.140625 42.195312 51.507812 42.195312 53.375 42.195312 L 55.535156 38.457031 L 60.546875 38.457031 L 62.707031 42.195312 L 113.359375 42.195312 C 113.917969 38.992188 113.917969 35.714844 113.359375 32.503906 Z M 113.359375 32.503906 " fill-opacity="1" fill-rule="nonzero"/></g><g clip-path="url(#a5c94ac908)"><path fill="#8c52ff" d="M 43.816406 18.375 L 45.980469 14.632812 L 50.988281 14.632812 L 53.152344 18.375 L 106.554688 18.375 C 96.515625 7.058594 85.261719 8.675781 71.6875 8.675781 L 53.152344 8.675781 L 50.988281 12.414062 L 45.980469 12.414062 L 43.816406 8.675781 L 38.222656 8.675781 L 35.425781 13.519531 L 38.222656 18.363281 L 43.816406 18.363281 Z M 43.816406 18.375 " fill-opacity="1" fill-rule="nonzero"/></g><g clip-path="url(#2df32edaef)"><path fill="#8c52ff" d="M 77.273438 24.332031 L 72.261719 24.332031 L 70.101562 20.59375 L 64.503906 20.59375 L 61.707031 25.4375 L 64.503906 30.285156 L 70.101562 30.285156 L 72.261719 26.542969 L 77.273438 26.542969 L 79.433594 30.285156 L 112.886719 30.285156 C 111.984375 26.746094 110.417969 23.46875 108.332031 20.585938 L 79.433594 20.585938 Z M 77.273438 24.332031 " fill-opacity="1" fill-rule="nonzero"/></g><g clip-path="url(#1cc8eda7ac)"><path fill="#8c52ff" d="M 10.296875 32.503906 L 7.5 37.351562 L 10.296875 42.203125 L 15.902344 42.203125 L 18.699219 37.351562 L 15.902344 32.503906 Z M 10.296875 32.503906 " fill-opacity="1" fill-rule="nonzero"/></g><path fill="#8c52ff" d="M 45.730469 25.4375 L 48.527344 30.285156 L 54.132812 30.285156 L 56.929688 25.4375 L 54.132812 20.59375 L 48.527344 20.59375 Z M 45.730469 25.4375 " fill-opacity="1" fill-rule="nonzero"/><path fill="#8c52ff" d="M 29.417969 56.328125 L 26.609375 61.179688 L 29.417969 66.027344 L 35.011719 66.027344 L 37.808594 61.179688 L 35.011719 56.328125 Z M 29.417969 56.328125 " fill-opacity="1" fill-rule="nonzero"/><g clip-path="url(#daf5c01724)"><path fill="#8c52ff" d="M 53.375 48.15625 L 48.367188 48.15625 L 46.203125 44.414062 L 40.609375 44.414062 L 37.808594 49.261719 L 40.609375 54.105469 L 46.203125 54.105469 L 48.367188 50.367188 L 53.375 50.367188 L 55.535156 54.105469 L 108.320312 54.105469 C 110.410156 51.222656 111.976562 47.945312 112.878906 44.40625 C 95.355469 44.40625 73.050781 44.40625 55.527344 44.40625 Z M 53.375 48.15625 " fill-opacity="1" fill-rule="nonzero"/></g><g clip-path="url(#488022d2c7)"><path fill="#8c52ff" d="M 67.714844 60.074219 L 62.707031 60.074219 L 60.546875 56.335938 C 55.5 56.335938 50.441406 56.335938 45.386719 56.335938 L 42.585938 61.179688 L 45.386719 66.027344 C 50.441406 66.027344 55.488281 66.027344 60.546875 66.027344 L 62.707031 62.285156 L 67.714844 62.285156 L 69.878906 66.027344 C 84.210938 66.027344 96.257812 67.9375 106.554688 56.328125 L 69.878906 56.328125 Z M 67.714844 60.074219 " fill-opacity="1" fill-rule="nonzero"/></g><path stroke-linecap="round" transform="matrix(0, 0.891218, -0.891218, 0, 88.270949, 3.041883)" fill="none" stroke-linejoin="miter" d="M 1.999887 2.00026 L 75.341394 2.00026 " stroke="#8c52ff" stroke-width="4" stroke-opacity="1" stroke-miterlimit="4"/></svg>